<?xml version="1.0" encoding="UTF-8"?><svg id="Layer_2" xmlns="http://www.w3.org/2000/svg" viewBox="0 0 81.61 103.53"><defs><style>.cls-1{fill:#fff;}.cls-2{fill:#888;}</style></defs><g id="basament_liv1"><path class="cls-1" d="M41.94,103.53c18.91-.17,25.49-2.64,26.17-2.92.57-.23,1.06-.62,1.4-1.13l.19-.28c1.03-.21,2.25-.48,2.86-.69,1.66-.57,2.98-1.99,5.43-5.82l.66-1.01c1.67-2.54,2.98-4.54,2.94-9.22l-.39-43.24c0-.99-.04-3.98-5.45-11.57-.81-1.13-1.67-2.32-2.5-3.48-.99-1.37-2.11-2.93-2.97-4.15.17-.12.33-.26.48-.41.58-.6.9-1.41.88-2.25l-.34-14.28c-.04-1.71-1.45-3.08-3.17-3.06L12.36.5c-1.71.02-3.1,1.41-3.11,3.12l-.08,14.29c0,.84.33,1.64.92,2.24.15.15.31.28.49.4-.84,1.24-1.94,2.82-2.9,4.2-.81,1.17-1.65,2.38-2.44,3.52C-.03,35.95,0,38.95,0,39.94l.39,43.24c.04,4.68,1.39,6.66,3.11,9.17l.68,1c2.52,3.79,3.87,5.18,5.54,5.73.61.2,1.84.45,2.87.64l.2.28c.4.56.97.97,1.63,1.18.34.1,8.41,2.53,27.53,2.36"/><path class="cls-2" d="M81.22,39.21c0-.99-.04-3.98-5.45-11.57-.81-1.13-1.67-2.32-2.5-3.48-.99-1.37-2.11-2.93-2.97-4.15.17-.12.33-.26.48-.41.58-.6.9-1.42.88-2.25l-.34-14.28c-.04-1.71-1.45-3.08-3.17-3.06L12.36.5c-1.71.02-3.1,1.41-3.11,3.12l-.08,14.29c0,.84.33,1.64.92,2.24.15.15.31.28.49.4-.84,1.24-1.94,2.82-2.9,4.2-.81,1.17-1.65,2.38-2.44,3.52C-.03,35.95,0,38.95,0,39.94l.39,43.24c.04,4.68,1.39,6.66,3.11,9.17l.68,1c2.52,3.79,3.87,5.18,5.54,5.73.61.2,1.84.45,2.87.64l.2.28c.4.56.97.97,1.63,1.18.34.1,8.41,2.53,27.53,2.36,18.91-.17,25.49-2.64,26.17-2.92.57-.23,1.06-.62,1.4-1.13l.19-.28c1.03-.21,2.25-.48,2.86-.69,1.66-.57,2.98-1.99,5.43-5.82l.66-1.01c1.67-2.54,2.98-4.54,2.94-9.22l-.39-43.24ZM73.42,88.22l-.7,1.08c-1.46,2.29-2.14,3.07-2.41,3.33-.6.15-1.96.44-3.05.65-.81.16-1.53.62-2,1.31l-.31.45c-2.18.6-8.94,2.08-23.07,2.21-14.37.13-22.12-1.27-24.67-1.84l-.27-.38c-.48-.68-1.21-1.13-2.02-1.27-1.1-.19-2.47-.45-3.06-.59-.27-.26-.96-1.02-2.46-3.29l-.72-1.07c-1.49-2.18-1.99-2.91-2.01-5.68l-.39-43.24c0-.69.85-3.27,4.14-8.05.78-1.13,1.61-2.34,2.42-3.5,2.49-3.58,4.04-5.83,4.56-6.79,1.07-1.97.93-3.64.86-4.1-.22-1.43-1.38-2.51-2.78-2.65l.05-8.04,49.6-.45.19,8.04c-1.41.17-2.54,1.27-2.74,2.7-.06.46-.18,2.13.93,4.08.54.95,2.13,3.17,4.68,6.7.83,1.15,1.68,2.34,2.48,3.45,3.37,4.73,4.28,7.28,4.28,7.98l.39,43.24c.02,2.77-.46,3.52-1.91,5.72Z"/></g></svg>